<?xml version="1.0" encoding="utf-8"?>
<!-- Generator: Adobe Illustrator 24.1.2, SVG Export Plug-In . SVG Version: 6.00 Build 0)  -->
<svg version="1.1" id="Camada_1" xmlns="http://www.w3.org/2000/svg" xmlns:xlink="http://www.w3.org/1999/xlink" x="0px" y="0px"
	 viewBox="0 0 1419.12 561.6" style="enable-background:new 0 0 1419.12 561.6;" xml:space="preserve">
<style type="text/css">
	.st0{fill:#D3095F;}
	.st1{fill:#E5006C;}
</style>
<g>
	<path class="st0" d="M1359.84,252.34l-0.03-0.58l-0.45-0.25c-8.79-5.33-20.32-8.34-31.6-8.58c-0.22-1.5-1.64-12.06-1.81-13.57
		c10.77-3.05,21.1-8.9,28.35-16.4l0.38-0.35l-0.12-0.58c-0.53-4.01-2.06-9.62-3.44-13.01l-0.23-0.51l-0.54-0.14
		c-9.92-2.83-21.8-2.76-32.7,0c-0.52-1.41-4.55-11.14-5.13-12.51c9.6-5.85,18.03-14.16,23.09-23.14l0.28-0.44l-0.2-0.56
		c-1.46-3.46-4.39-8.47-6.72-11.65l-0.32-0.44h-0.6c-10.21-0.22-21.6,2.91-31.64,8.32c-0.89-1.22-7.43-9.75-8.32-10.93
		c7.83-8.06,13.81-18.31,16.38-28.32l0.15-0.55l-0.39-0.43c-2.33-3.08-6.39-7.2-9.45-9.61l-0.43-0.32l-0.58,0.09
		c-10.03,2.53-20.22,8.55-28.3,16.32c-1.24-0.94-9.73-7.59-10.96-8.59c5.4-9.54,8.57-20.57,8.57-30.76c0-0.29-0.05-1.38-0.05-1.38
		l-0.44-0.32c-3.13-2.47-8.09-5.3-11.69-6.77l-0.5-0.17l-0.45,0.24c-9.01,5.01-17.27,13.39-23.06,22.98
		c-1.45-0.56-11.77-4.91-13.14-5.49c1.37-5.4,2.21-10.98,2.21-16.54c0-5.6-0.67-11.12-2.21-16.1l-0.12-0.52l-0.56-0.22
		c-3.4-1.46-8.86-2.96-12.89-3.54l-0.6-0.1l-0.36,0.39c-7.45,7.22-13.29,17.51-16.39,28.3c-1.53-0.25-12.21-1.58-13.84-1.74
		c-0.15-11.2-3.16-22.65-8.48-31.55l-0.27-0.51l-0.56-0.02c-3.85-0.5-9.69-0.5-13.46,0l-0.61,0.02l-0.26,0.51
		c-5.28,8.81-8.26,20.26-8.46,31.52c-1.54,0.2-12.4,1.52-13.96,1.77c-3.11-10.84-8.96-21.17-16.38-28.36l-0.41-0.41l-0.61,0.08
		c-3.99,0.6-9.52,2.09-12.93,3.47l-0.52,0.23l-0.2,0.52c-1.41,5.07-2.15,10.66-2.15,16.31c0,5.46,0.88,11.07,2.15,16.43
		c-1.36,0.58-11.78,5.06-13.18,5.62c-5.84-9.61-14.11-18.03-23.1-23.11l-0.5-0.28l-0.56,0.18c-3.44,1.52-8.44,4.4-11.61,6.77
		l-0.48,0.3v1.5c0,10.07,3.11,21.15,8.48,30.76c-1.18,0.97-9.01,7.1-10.18,8.05c-8.08-7.8-18.28-13.8-28.35-16.42l-0.52-0.1
		l-0.39,0.37c-3.09,2.32-7.25,6.38-9.62,9.47l-0.35,0.45l0.13,0.54c2.52,10,8.52,20.23,16.31,28.37c-0.85,1.2-7.68,10.09-8.63,11.32
		c-9.77-5.47-21.14-8.69-31.56-8.55l-0.52,0.02l-0.35,0.47c-2.28,3.03-5.16,7.93-6.74,11.66l-0.22,0.5l0.27,0.51
		c5,8.96,13.46,17.33,23.1,23.18c-0.52,1.38-4.48,11.02-5.08,12.42c-11.09-2.74-22.91-2.78-32.77,0.1l-0.53,0.14l-0.21,0.47
		c-1.45,3.46-2.95,8.9-3.52,13.02l-0.07,0.55l0.39,0.44c7.2,7.41,17.53,13.26,28.34,16.25c-0.23,1.53-1.62,12.2-1.81,13.66
		c-11.23,0.21-22.79,3.18-31.6,8.47l-0.5,0.28l-0.05,0.58c-0.23,1.94-0.37,4.33-0.37,6.76c0,2.42,0.14,4.79,0.37,6.72l0.05,0.55
		l0.5,0.25c8.81,5.28,20.28,8.31,31.56,8.47c0.22,1.54,1.73,12.5,1.92,14.01c-10.84,3.18-21.08,9.1-28.29,16.5l-0.38,0.46l0.05,0.5
		c0.62,4.06,2.11,9.63,3.51,12.99l0.22,0.5l0.51,0.17c10,2.85,21.82,2.73,32.79,0c0.56,1.38,4.82,11.08,5.39,12.49
		c-9.61,5.75-18.02,14.07-23.1,23.06l-0.24,0.51l0.18,0.52c1.47,3.53,4.42,8.52,6.76,11.64l0.36,0.45l0.5,0.02
		c10.32,0.14,21.71-2.91,31.61-8.37c0.92,1.16,7.6,9.87,8.49,11.06c-7.78,7.95-13.8,18.14-16.37,28.29l-0.14,0.52l0.33,0.45
		c2.37,3.03,6.47,7.1,9.49,9.56l0.45,0.38l0.53-0.18c10.01-2.49,20.17-8.44,28.36-16.28c1.23,0.96,9.88,7.61,11.16,8.56
		c-5.32,9.78-8.43,20.93-8.43,31.07v1.14l0.51,0.38c3.01,2.29,7.93,5.09,11.6,6.74l0.51,0.18l0.52-0.25
		c9.03-5.03,17.35-13.48,23.2-23.2c1.35,0.55,10.85,4.4,12.25,4.97c-1.36,5.36-2.14,10.87-2.14,16.31c0,5.71,0.75,11.29,2.2,16.31
		l0.13,0.53l0.56,0.21c3.41,1.46,8.9,2.96,12.95,3.61l0.6,0.08l0.39-0.45c7.46-7.26,13.29-17.59,16.22-28.28
		c1.57,0.26,12.5,1.81,14.02,1.97c0.22,11.28,3.25,22.76,8.54,31.52l0.24,0.48l0.6,0.07c3.88,0.5,9.65,0.5,13.46,0l0.55-0.07
		l0.28-0.48c5.25-8.76,8.26-20.25,8.55-31.59c1.53-0.21,11.76-1.64,13.29-1.9c3.02,10.87,8.89,21.12,16.36,28.36l0.41,0.37l0.5-0.03
		c4.08-0.65,9.61-2.09,13.05-3.48l0.48-0.24l0.17-0.51c1.45-5.06,2.11-10.61,2.11-16.3c0-5.51-0.77-11.13-2.11-16.54
		c1.41-0.53,11.32-4.83,12.72-5.45c5.85,9.64,14.16,18.09,23.12,23.14l0.45,0.23l0.53-0.2c3.56-1.47,8.61-4.38,11.69-6.8l0.45-0.26
		c0,0,0.03-1.19,0.03-1.51c0-9.94-3.14-21.04-8.37-30.75c1.17-0.93,9.38-7.3,10.54-8.25c8.19,7.78,18.4,13.77,28.41,16.35l0.53,0.15
		l0.41-0.38c3.05-2.4,7.21-6.51,9.6-9.48l0.37-0.48l-0.2-0.5c-2.48-9.99-8.44-20.21-16.24-28.37c0.9-1.2,7.52-9.9,8.41-11.13
		c9.91,5.46,21.31,8.59,31.55,8.37h0.58l0.33-0.41c2.44-3.13,5.28-8.03,6.75-11.73l0.23-0.47l-0.28-0.5
		c-4.9-8.8-13.27-17.19-22.88-23.24c0.55-1.37,4.48-10.94,5.07-12.33c10.87,2.8,22.71,2.9,32.65,0l0.47-0.16l0.23-0.5
		c1.45-3.5,2.94-8.94,3.56-12.97l0.06-0.56l-0.41-0.43c-7.2-7.46-17.48-13.26-28.19-16.32c0.23-1.5,1.69-11.77,1.83-13.28
		c11.36-0.2,22.89-3.21,31.68-8.52l0.45-0.28l0.03-0.6c0.26-1.87,0.37-4.32,0.37-6.73C1360.21,256.6,1360.11,254.23,1359.84,252.34
		 M1152.98,412.94c-85.64,0-155.35-69.71-155.35-155.39c0-85.67,69.71-155.37,155.35-155.37c85.69,0,155.36,69.7,155.36,155.37
		C1308.34,343.23,1238.67,412.94,1152.98,412.94"/>
	<path class="st0" d="M1152.98,120.87c-75.33,0-136.65,61.33-136.65,136.68c0,75.39,61.32,136.71,136.65,136.71
		c75.36,0,136.69-61.32,136.69-136.71C1289.68,182.2,1228.35,120.87,1152.98,120.87 M1170.18,142.85c1.31-1.07,3.06-0.74,4.78-0.38
		c27.46,6.66,47.63,18.26,67.31,38.94c1.39,1.47,2.15,2.85,2.15,4.07c0,0.12-0.05,0.31-0.05,0.48c-0.41,1.89-2.52,2.89-4.4,3.79
		l-57.51,27.86c-2.27,1.07-4.38,1.18-6.04,0.14c-1.69-0.97-2.75-2.86-2.94-5.33l-4.64-63.69
		C1168.67,145.66,1169.09,143.79,1170.18,142.85 M1063.43,181.89h0.03c19.68-20.66,39.8-32.31,67.28-38.9
		c1.69-0.38,3.5-0.7,4.72,0.38c1.16,0.91,1.57,2.78,1.35,5.84l-4.64,63.69c-0.15,2.45-1.16,4.38-2.88,5.32
		c-1.68,1-3.87,0.96-6.05-0.13l-57.47-27.83c-1.88-0.93-4.07-1.91-4.45-3.81C1061.14,185.15,1061.77,183.62,1063.43,181.89
		 M1049.78,299.96c-2.49,1.7-4.33,2.32-5.75,1.81c-1.56-0.54-2.09-2.26-2.58-3.95c-8.13-27.13-8.13-50.4-0.09-77.76
		c0.69-2.34,1.67-3.64,2.93-4.09c1.84-0.66,3.77,0.69,5.5,1.88l52.83,35.94c1.99,1.31,3.16,3.17,3.16,5.16
		c0,1.91-1.16,3.77-3.08,5.16L1049.78,299.96z M1136.49,374.74c-1.27,1.04-3.02,0.73-4.77,0.28c-27.45-6.55-47.63-18.17-67.28-38.88
		c-1.43-1.49-2.11-2.79-2.11-3.96c0-0.21,0-0.35,0.05-0.58c0.26-1.81,2.48-2.87,4.33-3.77l57.51-27.9c2.25-1.05,4.41-1.11,6.11-0.1
		c1.66,0.98,2.7,2.85,2.89,5.28l4.65,63.83C1138.05,371.97,1137.6,373.82,1136.49,374.74 M1152.88,295.17
		c-20.6,0-37.34-16.74-37.34-37.32c0-12.57,6.27-24.24,16.8-31.18c3.46-2.32,8.13-1.32,10.43,2.13c2.29,3.48,1.36,8.17-2.12,10.45
		c-6.29,4.14-10.02,11.08-10.02,18.6c0,12.26,10,22.26,22.26,22.26c12.29,0,22.28-10,22.28-22.26c0-7.52-3.73-14.49-10.03-18.63
		c-3.47-2.29-4.41-6.97-2.11-10.44c2.28-3.44,6.98-4.44,10.43-2.14c10.49,6.96,16.8,18.6,16.8,31.21
		C1190.24,278.44,1173.48,295.17,1152.88,295.17 M1242.35,335.39c-19.6,20.62-39.65,32.24-67.28,38.86
		c-2.34,0.59-3.96,0.4-4.97-0.43c-1.44-1.21-1.26-3.64-1.11-5.73l4.57-63.74c0.3-2.48,1.28-4.35,3.02-5.39
		c1.69-0.91,3.87-0.84,6,0.18l57.52,27.86c2.68,1.32,4.12,2.63,4.4,4.05C1244.8,332.66,1243.63,334.08,1242.35,335.39
		 M1261.73,215.66c1.56,0.52,2.17,2.23,2.64,3.93c8.08,27.15,8.08,50.39,0,77.76c-0.66,2.35-1.6,3.65-2.85,4.16
		c-1.8,0.55-3.78-0.74-5.44-1.97l-52.89-35.88c-2.03-1.36-3.23-3.21-3.23-5.18c0-1.95,1.16-3.79,3.23-5.21l52.89-35.84
		C1258.47,215.71,1260.34,215.17,1261.73,215.66"/>
	<path class="st0" d="M375.73,302.94c-3.63,0.17-10.34,0.48-14.68,0.48c-11.65,0-12.23-5.77-12.23-22.41V232.9h27.34
		c2.5,0,4.48-2,4.48-4.48v-15.33c0-2.48-1.98-4.47-4.48-4.47h-27.34v-22.63c0-1.38-0.66-2.66-1.74-3.51
		c-1.07-0.85-2.47-1.14-3.79-0.82l-17.98,4.37c-1.98,0.48-3.38,2.28-3.38,4.35v18.24h-10.39c-2.49,0-4.48,1.99-4.48,4.47v15.33
		c0,2.48,1.99,4.48,4.48,4.48h10.39v51.9c0,33.95,8.26,44.34,35.34,44.34c5.4,0,14-1.41,20.25-2.56c2.19-0.43,3.74-2.41,3.63-4.62
		l-0.77-14.77C380.27,304.71,378.13,302.9,375.73,302.94"/>
	<path class="st0" d="M242.73,205.81c-36.69,0-53.07,18.84-53.07,61.07c0,42.87,16.38,61.99,53.07,61.99
		c36.53,0,52.81-19.12,52.81-61.99C295.53,225.19,278.75,205.81,242.73,205.81 M242.73,304.58c-21.62,0-25.71-13.22-25.71-37.7
		c0-26.99,6.73-36.55,25.71-36.55c18.32,0,25.47,10.23,25.47,36.55C268.2,290.76,264.01,304.58,242.73,304.58"/>
	<path class="st0" d="M144.67,255.4c18.63-9.24,27.69-22.95,27.69-41.92c0-22.72-9.65-49.83-55.55-49.83c0,0-1.3-0.01-3.76-0.01
		c-7.11,0-26.27,0.29-50.18,2.98c-2.27,0.25-3.97,2.15-3.97,4.44v150.77c0,2.47,1.99,4.46,4.47,4.46h18.66
		c2.48,0,4.45-1.99,4.45-4.46v-59.53c6.23,0.44,17.76,1.14,31.05,1.23l26.71,60.11c0.7,1.6,2.32,2.65,4.07,2.65h20.86
		c1.53,0,2.93-0.75,3.76-2.02c0.82-1.28,0.94-2.88,0.33-4.25L144.67,255.4z M115.42,238.23c-13.59,0.15-23.7-0.39-28.94-0.75V191
		c3.18-0.65,9.43-1.46,20.41-1.46h9.83c19.99,0,27.09,12.61,27.09,24.43C143.82,228.74,132.95,238.04,115.42,238.23"/>
	<path class="st0" d="M890.02,302.94c-3.63,0.17-10.36,0.48-14.65,0.48c-11.68,0-12.26-5.77-12.26-22.41V232.9h27.34
		c2.5,0,4.48-2,4.48-4.48v-15.33c0-2.48-1.98-4.47-4.48-4.47h-27.34v-22.63c0-1.38-0.66-2.66-1.73-3.51
		c-1.09-0.85-2.49-1.14-3.81-0.82l-17.96,4.37c-1.99,0.48-3.39,2.28-3.39,4.35v18.24h-10.4c-2.48,0-4.47,1.99-4.47,4.47v15.33
		c0,2.48,1.99,4.48,4.47,4.48h10.4v51.9c0,33.95,8.26,44.34,35.37,44.34c5.38,0,13.97-1.41,20.23-2.56
		c2.18-0.43,3.73-2.41,3.63-4.62l-0.77-14.77C894.56,304.71,892.43,302.9,890.02,302.94"/>
	<path class="st0" d="M765.78,230.32c12.8,0,24.68,2.9,34.42,3.78c1.21,0.13,2.44-0.26,3.36-1.07c0.9-0.79,1.46-1.97,1.51-3.18
		l0.59-14.92c0.09-2.27-1.53-4.24-3.76-4.57c-8.71-1.39-22.58-4.55-36.13-4.55c-36.69,0-53.06,18.84-53.06,61.07
		c0,0.31,0.01,0.6,0.01,0.91h-0.01c0,42.24,16.37,61.08,53.06,61.08c13.55,0,27.42-3.16,36.13-4.55c2.22-0.35,3.85-2.32,3.76-4.58
		l-0.59-14.92c-0.05-1.21-0.61-2.38-1.51-3.18c-0.92-0.81-2.15-1.19-3.36-1.06c-9.75,0.86-21.62,3.77-34.42,3.77
		c-16.46,0-23.7-7.2-25.33-26.69c-0.03-0.39-0.06-0.77-0.09-1.19c-0.06-0.74-0.09-1.51-0.13-2.3c-0.05-0.82-0.07-1.66-0.09-2.51
		c-0.03-0.56-0.03-1.18-0.05-1.75c0-1-0.03-1.98-0.03-3.02C740.06,239.88,746.8,230.32,765.78,230.32"/>
	<path class="st0" d="M652.79,205.8c-13.54,0-35.23,3.16-43.94,4.55c-2.22,0.33-3.85,2.32-3.76,4.58l0.58,14.92
		c0.06,1.21,0.62,2.38,1.52,3.17c0.92,0.81,2.15,1.21,3.36,1.07c9.75-0.88,28.02-2.37,40.82-2.37c9.3,0,14.63,5.16,14.63,14.15v7.08
		l-29.23,2.35c-27.98,2.1-39.4,12.45-39.4,35.86c0,23.98,12.46,37.69,34.2,37.69c18.04,0,38.25-8.14,38.43-8.23
		c4.32,3.32,8.66,6.17,17.8,7.45c1.26,0.18,2.56-0.2,3.55-1.05c0.96-0.84,1.53-2.07,1.53-3.38v-78.02
		C692.89,218.47,680.16,205.8,652.79,205.8 M666.01,301.05c-0.17,0.06-17.06,4.75-29.48,4.75c-10.46,0-12.03-9.65-12.03-15.36
		c0-9.3,5.01-14.11,15.56-15.11l25.94-1.37V301.05z"/>
	<path class="st0" d="M449.97,205.8c-13.55,0-35.23,3.16-43.94,4.55c-2.22,0.33-3.85,2.32-3.76,4.58l0.59,14.92
		c0.05,1.21,0.61,2.38,1.51,3.17c0.92,0.81,2.15,1.21,3.36,1.07c9.73-0.88,28-2.37,40.81-2.37c9.29,0,14.62,5.16,14.62,14.15v7.08
		l-29.23,2.35c-27.98,2.1-39.39,12.45-39.39,35.86c0,23.98,12.46,37.69,34.19,37.69c18.04,0,38.25-8.14,38.43-8.23
		c4.32,3.32,8.66,6.17,17.8,7.45c1.26,0.18,2.57-0.2,3.55-1.05c0.97-0.84,1.53-2.07,1.53-3.38v-78.02
		C490.06,218.47,477.33,205.8,449.97,205.8 M463.17,301.05c-0.17,0.06-17.05,4.75-29.48,4.75c-10.46,0-12.03-9.65-12.03-15.36
		c0-9.3,5.01-14.11,15.56-15.11l25.94-1.37V301.05z"/>
	<path class="st0" d="M577.32,207.73c-11.89,0.7-23.57,7.5-30.85,12.67v-7.32c0-2.48-2-4.47-4.48-4.47h-17.95
		c-2.48,0-4.48,1.99-4.48,4.47v108.74c0,2.48,2,4.47,4.48,4.47h17.95c2.48,0,4.48-1.99,4.48-4.47v-75.17
		c4.05-3.36,16.59-12.78,31.52-14.09c2.3-0.2,4.08-2.13,4.08-4.45v-15.94c0-1.23-0.51-2.4-1.42-3.24
		C579.77,208.08,578.53,207.62,577.32,207.73"/>
</g>
<g>
	<path class="st1" d="M234.81,412.03h14.79l35.25,84.88l35.39-84.88h13.69v96.49h-9.54v-86.95h-0.28L289,508.52h-8.16l-36.22-86.95
		h-0.28v86.95h-9.54V412.03z"/>
	<path class="st1" d="M356.87,412.03h23.92c17.14,0.19,29.54,4.65,37.19,13.41c7.46,8.76,11.15,20.32,11.06,34.7
		c-0.19,17.23-5.39,29.63-15.62,37.19c-10.14,7.46-23.36,11.2-39.67,11.2h-16.87V412.03z M366.41,500.22h7.88
		c29.4,0.65,44.47-12.9,45.2-40.64c-0.19-14.56-3.96-24.83-11.34-30.83c-7.46-5.71-16.73-8.52-27.79-8.43h-13.96V500.22z"/>
	<path class="st1" d="M448.66,412.03h9.54v96.49h-9.54V412.03z"/>
	<path class="st1" d="M486.54,425.44c6.91-9.77,17.6-14.79,32.07-15.07c14.56,0.28,25.34,5.3,32.35,15.07
		c6.91,9.68,10.27,21.29,10.09,34.84c-0.09,15.02-3.69,27-10.78,35.94c-7.19,9.12-17.74,13.78-31.66,13.96
		c-13.82-0.19-24.28-4.84-31.38-13.96c-7.19-8.94-10.88-20.92-11.06-35.94C476.08,446.73,479.53,435.11,486.54,425.44z
		 M493.73,431.66c-5.35,8.39-8.02,17.93-8.02,28.62c0,10.69,2.67,20.14,8.02,28.34c5.34,8.66,13.64,13.09,24.88,13.27
		c11.34-0.18,19.67-4.61,25.02-13.27c5.25-8.2,7.88-17.65,7.88-28.34c0-10.69-2.63-20.23-7.88-28.62
		c-5.35-8.38-13.69-12.72-25.02-12.99C507.36,418.94,499.07,423.27,493.73,431.66z"/>
	<path class="st1" d="M618,412.03h22.95c8.2-0.09,15.3,1.52,21.29,4.84c5.99,3.5,9.08,9.82,9.26,18.94
		c0,12.26-5.85,19.58-17.56,21.98v0.28c6.17,1.11,11.1,3.59,14.79,7.47c3.69,3.87,5.58,9.03,5.67,15.48
		c-0.19,10.32-3.87,17.51-11.06,21.57c-3.32,2.03-7.24,3.55-11.75,4.56c-4.42,0.92-9.22,1.38-14.38,1.38H618V412.03z M627.54,500.22
		h9.95c3.32,0,6.59-0.32,9.82-0.97c3.22-0.55,6.17-1.47,8.85-2.76c2.67-1.38,4.79-3.32,6.36-5.81c1.57-2.49,2.35-5.57,2.35-9.26
		c0-4.33-0.78-7.79-2.35-10.37c-1.66-2.58-3.87-4.47-6.64-5.67c-2.77-1.29-5.85-2.12-9.26-2.49c-3.5-0.28-7.05-0.41-10.64-0.41
		h-8.43V500.22z M627.81,454.19h10.64c2.67,0,5.39-0.28,8.16-0.83c2.67-0.46,5.16-1.29,7.46-2.49c2.4-1.38,4.29-3.22,5.67-5.53
		c1.47-2.39,2.21-5.44,2.21-9.12c0-3.59-0.65-6.45-1.93-8.57c-1.48-2.02-3.27-3.59-5.39-4.7c-2.12-1.1-4.38-1.84-6.77-2.21
		c-2.49-0.28-4.79-0.41-6.91-0.41h-13.13V454.19z"/>
	<path class="st1" d="M694.72,453.78c0-6.54-0.19-11.8-0.55-15.76h8.71v13.55h0.28c1.66-4.15,4.01-7.69,7.05-10.64
		c2.95-2.95,6.64-4.47,11.06-4.56c2.3,0.09,4.33,0.37,6.08,0.83v9.12c-1.93-0.55-4.06-0.83-6.36-0.83
		c-3.41,0.09-6.22,0.92-8.43,2.49c-2.21,1.66-4.01,3.92-5.39,6.77c-1.29,2.76-2.21,5.76-2.77,8.98c-0.65,3.41-0.97,6.73-0.97,9.95
		v34.84h-8.71V453.78z"/>
	<path class="st1" d="M781.26,497.18h-0.28c-2.03,4.15-5.11,7.33-9.26,9.54c-4.15,2.21-8.53,3.36-13.13,3.46
		c-4.88-0.09-8.85-0.88-11.89-2.35c-3.14-1.38-5.53-3.13-7.19-5.25c-2.95-4.61-4.33-8.71-4.15-12.3c0-5.9,1.43-10.55,4.29-13.96
		c2.76-3.41,6.31-5.85,10.64-7.33c4.33-1.57,9.03-2.58,14.1-3.04c4.98-0.28,9.77-0.41,14.38-0.41h1.66v-3.59
		c0.28-12.07-5.07-18.11-16.03-18.11c-7.28-0.09-14.19,1.84-20.74,5.81v-8.43c6.54-3.04,13.45-4.65,20.74-4.84
		c16.68-0.18,24.93,8.57,24.74,26.26v31.1c-0.09,5.35,0.14,10.28,0.69,14.79h-8.57V497.18z M780.43,472.99h-2.49
		c-3.78,0-7.56,0.09-11.33,0.28c-3.96,0.37-7.56,1.15-10.78,2.35c-3.23,1.11-5.81,2.81-7.74,5.11c-2.12,2.3-3.18,5.39-3.18,9.26
		c0,4.52,1.47,7.74,4.42,9.68c2.76,2.03,6.17,3.04,10.23,3.04c5.07,0,9.07-1.01,12.03-3.04c2.86-1.93,4.93-4.24,6.22-6.91
		c1.38-2.86,2.16-5.67,2.35-8.43c0.18-2.86,0.28-5.21,0.28-7.05V472.99z"/>
	<path class="st1" d="M822.87,502.71c4.33,0,8.02-1.15,11.06-3.46c2.95-2.12,4.47-5.16,4.56-9.12c-0.09-4.15-1.8-7.42-5.11-9.82
		c-3.32-2.3-7.24-4.37-11.75-6.22c-2.12-1.01-4.15-2.07-6.08-3.18c-1.93-1.11-3.78-2.35-5.53-3.73c-1.57-1.47-2.86-3.18-3.87-5.11
		c-1.02-1.84-1.52-4.01-1.52-6.5c0.09-7,2.49-11.98,7.19-14.93c4.51-2.86,9.77-4.29,15.76-4.29c2.02,0,4.65,0.19,7.88,0.55
		c3.22,0.55,6.4,1.43,9.54,2.63l-0.83,7.6c-5.07-2.12-10.28-3.22-15.62-3.32c-4.52,0-8.11,0.83-10.78,2.49
		c-1.38,0.83-2.44,1.98-3.18,3.46c-0.83,1.47-1.24,3.41-1.24,5.8c0,1.48,0.5,2.86,1.52,4.15c1.01,1.2,2.35,2.3,4.01,3.32
		c1.66,0.92,3.55,1.89,5.67,2.9c2.12,0.92,4.19,1.93,6.22,3.04c4.61,1.93,8.62,4.52,12.03,7.74c3.41,3.23,5.16,7.69,5.25,13.41
		c0,3.69-0.74,6.77-2.21,9.26c-1.57,2.58-3.55,4.66-5.95,6.22c-5.16,3.04-10.64,4.56-16.45,4.56c-6.82,0-13.41-1.11-19.77-3.32
		l0.83-8.57C809.83,501.15,815.96,502.62,822.87,502.71z"/>
	<path class="st1" d="M872.35,419.22h-8.71v-11.61h8.71V419.22z M863.65,438.02h8.71v70.5h-8.71V438.02z"/>
	<path class="st1" d="M894.34,404.84h8.71v103.68h-8.71V404.84z"/>
</g>
</svg>
