<svg id="facebook" xmlns="http://www.w3.org/2000/svg" width="45.827" height="45.827" viewBox="0 0 45.827 45.827">
  <path id="facebook-2" data-name="facebook" d="M6.713,45.827H21.66V29.537H16.29v-5.37h5.37V17.454a6.721,6.721,0,0,1,6.713-6.713h6.713v5.37h-5.37A2.688,2.688,0,0,0,27.031,18.8v5.37h7.813l-.9,5.37H27.031v16.29H39.114a6.721,6.721,0,0,0,6.713-6.713V6.713A6.721,6.721,0,0,0,39.114,0H6.713A6.721,6.721,0,0,0,0,6.713v32.4A6.721,6.721,0,0,0,6.713,45.827ZM2.685,6.713A4.032,4.032,0,0,1,6.713,2.685h32.4a4.032,4.032,0,0,1,4.028,4.028v32.4a4.032,4.032,0,0,1-4.028,4.028h-9.4V32.222h6.508l1.79-10.741h-8.3V18.8h8.056V8.056h-9.4a9.409,9.409,0,0,0-9.4,9.4v4.028H13.6V32.222h5.37v10.92H6.713a4.032,4.032,0,0,1-4.028-4.028Zm0,0" fill="#fff"/>
</svg>
