<svg id="instagram-sketched" xmlns="http://www.w3.org/2000/svg" width="45.826" height="45.827" viewBox="0 0 45.826 45.827">
  <path id="Caminho_1" data-name="Caminho 1" d="M17.6,5.838A11.758,11.758,0,1,0,29.363,17.6,11.757,11.757,0,0,0,17.6,5.838Zm0,19.39A7.632,7.632,0,1,1,25.236,17.6,7.63,7.63,0,0,1,17.6,25.228Z" transform="translate(5.317 5.308)" fill="#fff"/>
  <path id="Caminho_2" data-name="Caminho 2" d="M32.361.145c-4.216-.2-14.659-.187-18.879,0C9.775.318,6.5,1.214,3.867,3.851-.54,8.258.023,14.2.023,22.905c0,8.913-.5,14.714,3.844,19.054C8.291,46.382,14.315,45.8,22.921,45.8c8.829,0,11.877.006,15-1.2,4.245-1.648,7.449-5.442,7.762-12.257.2-4.218.187-14.659,0-18.879C45.3,5.42,40.986.542,32.361.145Zm6.673,38.9c-2.889,2.889-6.9,2.631-16.169,2.631-9.547,0-13.376.141-16.169-2.66-3.217-3.2-2.635-8.344-2.635-16.14,0-10.55-1.083-18.147,9.505-18.69C16,4.1,16.715,4.07,22.839,4.07l.086.057c10.175,0,18.159-1.065,18.638,9.52.109,2.415.134,3.141.134,9.255,0,9.436.178,13.288-2.662,16.14Z" transform="translate(0 -0.001)" fill="#fff"/>
  <circle id="Elipse_1" data-name="Elipse 1" cx="2.748" cy="2.748" r="2.748" transform="translate(32.398 7.934)" fill="#fff"/>
</svg>
