<svg xmlns="http://www.w3.org/2000/svg" width="45.392" height="46.005" viewBox="0 0 45.392 46.005">
  <path id="linkedin" d="M14.186,38.008H7.98V17.7h6.206Zm.619-26.776a3.635,3.635,0,1,0-3.633,3.684A3.66,3.66,0,0,0,14.805,11.231Zm22.608,15.6c0-5.451-1.136-9.494-7.419-9.494a6.422,6.422,0,0,0-5.873,3.122h-.006V17.7H18.086V38.008h6.029V27.925c0-2.64.663-5.2,3.893-5.2,3.185,0,3.289,3.02,3.289,5.366v9.915h6.117Zm7.979,13.778V5.391A5.362,5.362,0,0,0,40.073,0H5.32A5.362,5.362,0,0,0,0,5.391V40.613A5.362,5.362,0,0,0,5.32,46H40.073A5.362,5.362,0,0,0,45.393,40.613ZM40.073,3.594a1.787,1.787,0,0,1,1.773,1.8V40.613a1.787,1.787,0,0,1-1.773,1.8H5.32a1.787,1.787,0,0,1-1.773-1.8V5.391a1.787,1.787,0,0,1,1.773-1.8Zm0,0" transform="translate(0)" fill="#fff"/>
</svg>
