<svg id="twitter" xmlns="http://www.w3.org/2000/svg" width="45.827" height="45.791" viewBox="0 0 45.827 45.791">
  <g id="Grupo_12" data-name="Grupo 12">
    <path id="Caminho_3" data-name="Caminho 3" d="M34.307.2H11.484A11.508,11.508,0,0,0,0,11.684V34.543A11.5,11.5,0,0,0,11.484,45.991H34.343A11.508,11.508,0,0,0,45.827,34.507V11.684A11.563,11.563,0,0,0,34.307.2ZM34.27,17.353v.763A16.426,16.426,0,0,1,17.589,34.543a16.731,16.731,0,0,1-8.976-2.58c.472.036.909.073,1.381.073a11.706,11.706,0,0,0,7.268-2.471,5.856,5.856,0,0,1-5.488-4,5.547,5.547,0,0,0,1.09.109,5.414,5.414,0,0,0,1.563-.218,5.808,5.808,0,0,1-4.615-5.669v-.073a5.621,5.621,0,0,0,2.617.727,5.7,5.7,0,0,1-1.817-7.7,16.789,16.789,0,0,0,12.066,6.033,5.351,5.351,0,0,1-.145-1.308,5.809,5.809,0,0,1,5.851-5.778A5.955,5.955,0,0,1,32.671,13.5a10.91,10.91,0,0,0,3.707-1.417,5.916,5.916,0,0,1-2.58,3.2,11.611,11.611,0,0,0,3.38-.909A11.933,11.933,0,0,1,34.27,17.353Z" transform="translate(0 -0.2)" fill="#fff"/>
  </g>
</svg>
