<svg id="youtube" xmlns="http://www.w3.org/2000/svg" width="55.809" height="42.271" viewBox="0 0 55.809 42.271">
  <path id="Caminho_4" data-name="Caminho 4" d="M206.627,113.55,194.3,106.8a2.265,2.265,0,0,0-3.352,1.987v13.377a2.261,2.261,0,0,0,3.337,1.994l12.33-6.63a2.265,2.265,0,0,0,.014-3.982Zm-12.411,6.934v-10l9.215,5.042Zm0,0" transform="translate(-170.132 -94.912)" fill="#fff"/>
  <path id="Caminho_5" data-name="Caminho 5" d="M55.4,9.977l0-.026c-.047-.449-.518-4.445-2.46-6.477A9.081,9.081,0,0,0,46.92.654c-.1-.011-.194-.022-.277-.033l-.1-.01C39.167.074,28.025,0,27.913,0h-.02C27.782,0,16.64.074,9.2.61l-.1.01c-.079.011-.166.02-.261.032A8.853,8.853,0,0,0,2.856,3.56C1.006,5.57.471,9.48.416,9.92L.41,9.977c-.017.187-.41,4.637-.41,9.1v4.176c0,4.467.394,8.917.41,9.1l0,.028c.047.442.517,4.364,2.451,6.4a9.267,9.267,0,0,0,6.216,2.78c.227.026.422.048.556.072l.129.018c4.26.405,17.617.605,18.183.613h.034c.112,0,11.254-.074,18.632-.61l.1-.01c.093-.012.2-.023.313-.035a8.648,8.648,0,0,0,5.928-2.836c1.85-2.011,2.385-5.921,2.44-6.36l.006-.057c.017-.187.411-4.637.411-9.1V19.081c0-4.467-.394-8.917-.411-9.1Zm-2.86,13.28c0,4.135-.361,8.393-.4,8.784-.139,1.077-.7,3.551-1.6,4.53a5.379,5.379,0,0,1-3.86,1.791c-.126.013-.243.026-.348.039-7.136.516-17.858.6-18.352.6-.554-.008-13.715-.209-17.845-.593-.212-.034-.44-.061-.681-.088a6.115,6.115,0,0,1-4.183-1.747l-.03-.032c-.886-.923-1.434-3.236-1.573-4.485-.026-.3-.4-4.6-.4-8.8V19.081c0-4.13.36-8.384.4-8.783.166-1.268.74-3.592,1.6-4.532A5.643,5.643,0,0,1,9.211,3.9l.267-.032c7.24-.519,18.039-.6,18.426-.6s11.182.08,18.358.6l.288.034a5.856,5.856,0,0,1,4.005,1.814l.013.014c.886.923,1.434,3.276,1.573,4.551.025.279.4,4.6.4,8.8Zm0,0" transform="translate(0.001 0)" fill="#fff"/>
</svg>
